<?xml version="1.0" encoding="UTF-8"?>
<svg width="184px" height="71px" viewBox="0 0 184 71" version="1.1" xmlns="http://www.w3.org/2000/svg" xmlns:xlink="http://www.w3.org/1999/xlink">
    <!-- Generator: Sketch 49.3 (51167) - http://www.bohemiancoding.com/sketch -->
    <title>TissLogo</title>
    <desc>Created with Sketch.</desc>
    <defs>
        <linearGradient x1="7.87921826%" y1="6.42710875%" x2="104.07868%" y2="114.962786%" id="linearGradient-1">
            <stop stop-color="#61C9A0" offset="0%"></stop>
            <stop stop-color="#03AFC9" offset="100%"></stop>
        </linearGradient>
    </defs>
    <g id="TissLogo" stroke="none" stroke-width="1" fill="none" fill-rule="evenodd">
        <g id="Page-1" transform="translate(0.000000, 2.000000)">
            <g id="Group-7" transform="translate(73.000000, 2.000000)" fill="#E6EBEF">
                <path d="M26.2006409,24.6479609 L17.2254495,24.6479609 L17.2254495,35.6629686 C17.2254495,36.5701202 17.2702121,37.3968124 17.3614372,38.144745 C17.4515291,38.8926776 17.655794,39.5386194 17.9733821,40.0822871 C18.2898369,40.6262381 18.777693,41.0461003 19.4352504,41.3404571 C20.0919579,41.6356639 20.9651126,41.782134 22.0527312,41.782134 C22.5969655,41.782134 23.3109012,41.7260391 24.1948216,41.6124326 C25.078742,41.4996761 25.7467818,41.2384663 26.2006409,40.8305031 L26.2006409,49.3297374 C25.0671263,49.7377006 23.8888492,50.0096761 22.6649594,50.1456639 C21.4410697,50.2813683 20.2395613,50.3496455 19.0612841,50.3496455 C17.338206,50.3496455 15.7516822,50.1677619 14.3017129,49.8056945 C12.850327,49.4433438 11.5816746,48.8653959 10.4940559,48.0718507 C9.40615391,47.2794387 8.55623047,46.2476317 7.9442856,44.9781294 C7.33205743,43.709477 7.0263683,42.1679992 7.0263683,40.3542626 L7.0263683,24.6479609 L0.498956355,24.6479609 L0.498956355,16.488696 L7.0263683,16.488696 L7.0263683,6.6975781 L17.2254495,6.6975781 L17.2254495,16.488696 L26.2006409,16.488696 L26.2006409,24.6479609 Z" id="Fill-1"></path>
                <path d="M31.5041348,49.5336907 L41.7032159,49.5336907 L41.7032159,16.4886677 L31.5041348,16.4886677 L31.5041348,49.5336907 Z M30.6882083,6.0856049 C30.6882083,4.45375191 31.2661562,3.05987749 32.4220521,1.90398162 C33.5776646,0.748085758 34.9718224,0.170137825 36.6036753,0.170137825 C38.2355283,0.170137825 39.6291194,0.748085758 40.7852986,1.90398162 C41.9411945,3.05987749 42.5191424,4.45375191 42.5191424,6.0856049 C42.5191424,7.71745789 41.9411945,9.11133231 40.7852986,10.2672282 C39.6291194,11.423124 38.2355283,12.0007887 36.6036753,12.0007887 C34.9718224,12.0007887 33.5776646,11.423124 32.4220521,10.2672282 C31.2661562,9.11133231 30.6882083,7.71745789 30.6882083,6.0856049 Z" id="Fill-3"></path>
                <path d="M67.7442182,26.2116784 C66.2486363,24.3534625 64.2768139,23.4239296 61.8287511,23.4239296 C60.9672121,23.4239296 60.1289043,23.6279112 59.3129778,24.0358744 C58.4970513,24.444121 58.0890881,25.147291 58.0890881,26.1439678 C58.0890881,26.9598943 58.5075337,27.5610735 59.3469747,27.9455222 C60.1852825,28.3311041 61.2508032,28.6713568 62.5429701,28.9657136 C63.8345704,29.2609204 65.2168292,29.5773752 66.6903132,29.9173446 C68.1629472,30.2573139 69.5460559,30.7907825 70.8379395,31.5154839 C72.1298231,32.2407519 73.1942106,33.2269464 74.0336516,34.4729342 C74.8719594,35.7203384 75.2918216,37.3859051 75.2918216,39.4707672 C75.2918216,41.6018086 74.8263469,43.3577504 73.8979472,44.7400092 C72.9681309,46.1234012 71.7782381,47.2334012 70.3279855,48.071709 C68.8768828,48.9111501 67.2447466,49.4995804 65.4324265,49.8395498 C63.6189732,50.1798025 61.8287511,50.3495038 60.0609104,50.3495038 C57.749402,50.3495038 55.4140957,50.0203002 53.0575413,49.363876 C50.7001371,48.7068851 48.7059334,47.5393737 47.0740804,45.8619081 L53.261523,38.9945268 C54.2134372,40.1739372 55.2673423,41.06834 56.4232381,41.6805681 C57.579134,42.292513 58.9273959,42.5982021 60.4688737,42.5982021 C61.6474342,42.5982021 62.7126715,42.4282175 63.6648691,42.0882481 C64.6165,41.7482787 65.0927404,41.1258515 65.0927404,40.2184165 C65.0927404,39.3577274 64.6728783,38.7120689 63.8345704,38.2808744 C62.9951294,37.8505299 61.930742,37.4881792 60.6388583,37.1929724 C59.3469747,36.8986156 57.963866,36.5810276 56.491232,36.2407749 C55.0177481,35.9008055 53.6354893,35.3908515 52.343889,34.7109127 C51.0517221,34.0312573 49.9862014,33.0685773 49.1478936,31.8214564 C48.3084525,30.574902 47.8900069,28.9090521 47.8900069,26.8236233 C47.8900069,24.8753155 48.2863545,23.1975666 49.0798997,21.7920766 C49.8725949,20.3874364 50.9160176,19.2318239 52.2076179,18.324389 C53.4997848,17.4183706 54.9837511,16.7500475 56.6612167,16.3185697 C58.3378323,15.8885084 60.0376792,15.6729112 61.7607573,15.6729112 C63.9368446,15.6729112 66.1347466,15.9904992 68.3561631,16.6245421 C70.5767297,17.2597182 72.4581769,18.3923828 73.9996547,20.0242358 L67.7442182,26.2116784 Z" id="Fill-5"></path>
                <path d="M99.2251554,26.2116784 C97.7295735,24.3534625 95.7577511,23.4239296 93.3096884,23.4239296 C92.4481493,23.4239296 91.6098415,23.6279112 90.793915,24.0358744 C89.9779885,24.444121 89.5700253,25.147291 89.5700253,26.1439678 C89.5700253,26.9598943 89.9884709,27.5610735 90.8279119,27.9455222 C91.6662198,28.3311041 92.7317404,28.6713568 94.0239074,28.9657136 C95.3155077,29.2609204 96.6977665,29.5773752 98.1712504,29.9173446 C99.6438844,30.2573139 101.026993,30.7907825 102.318877,31.5154839 C103.61076,32.2407519 104.675148,33.2269464 105.514589,34.4729342 C106.352897,35.7203384 106.772759,37.3859051 106.772759,39.4707672 C106.772759,41.6018086 106.307284,43.3577504 105.378884,44.7400092 C104.449068,46.1234012 103.259175,47.2334012 101.808923,48.071709 C100.35782,48.9111501 98.7256838,49.4995804 96.9133637,49.8395498 C95.0999104,50.1798025 93.3096884,50.3495038 91.5418476,50.3495038 C89.2303392,50.3495038 86.8950329,50.0203002 84.5384786,49.363876 C82.1810743,48.7068851 80.1868706,47.5393737 78.5550176,45.8619081 L84.7424602,38.9945268 C85.6943744,40.1739372 86.7482795,41.06834 87.9041753,41.6805681 C89.0600712,42.292513 90.4083331,42.5982021 91.9498109,42.5982021 C93.1280881,42.5982021 94.1936087,42.4282175 95.1458063,42.0882481 C96.0974372,41.7482787 96.5736776,41.1258515 96.5736776,40.2184165 C96.5736776,39.3577274 96.1538155,38.7120689 95.3155077,38.2808744 C94.4760666,37.8505299 93.4116792,37.4881792 92.1197956,37.1929724 C90.8279119,36.8986156 89.4448032,36.5810276 87.9721692,36.2407749 C86.4986853,35.9008055 85.1164265,35.3908515 83.8248262,34.7109127 C82.5326593,34.0312573 81.4671386,33.0685773 80.6288308,31.8214564 C79.7893897,30.574902 79.3709441,28.9090521 79.3709441,26.8236233 C79.3709441,24.8753155 79.7672917,23.1975666 80.5608369,21.7920766 C81.3535322,20.3874364 82.3969548,19.2318239 83.6885551,18.324389 C84.9807221,17.4183706 86.4646884,16.7500475 88.1421539,16.3185697 C89.8187695,15.8885084 91.5186164,15.6729112 93.2416945,15.6729112 C95.4177818,15.6729112 97.6156838,15.9904992 99.8371003,16.6245421 C102.057667,17.2597182 103.939114,18.3923828 105.480592,20.0242358 L99.2251554,26.2116784 Z" id="Fill-6"></path>
            </g>
            <g id="Group-10" fill="url(#linearGradient-1)">
                <path d="M33.1946095,0 C31.3893721,6.62798622 30.7439969,13.6492037 31.442634,20.7811945 C38.2499541,21.1900077 43.6438515,26.8368989 43.6438515,33.7428101 C43.6438515,37.8482236 41.7374732,41.5088438 38.7610413,43.8886294 C41.7553216,49.1476723 45.5272818,53.8443492 49.8927718,57.8579709 L58.0783844,53.1372129 C60.0065773,52.025513 61.194487,49.9686983 61.194487,47.7430322 L61.194487,19.7074579 C61.194487,17.4817917 60.0065773,15.4252603 58.0783844,14.3132772 L33.7617917,0.289257274 C33.5765084,0.182733538 33.3872588,0.0861255743 33.1946095,0 Z M3.1161026,14.3132772 C1.18790965,15.4252603 0,17.4817917 0,19.7074579 L0,47.7430322 C0,49.9686983 1.18790965,52.025513 3.1161026,53.1372129 L27.4326953,67.1612328 C28.3871593,67.7116998 29.4512634,67.9893415 30.5165008,67.9938744 L30.5708959,67.9938744 C31.6361332,67.9893415 32.7002374,67.7116998 33.6547014,67.1612328 L42.7848622,61.8956738 C38.3017994,57.4602067 34.4309648,52.3592496 31.3451761,46.7041424 C31.0802833,46.7200077 30.8128407,46.7282236 30.5436983,46.7282236 C23.3675115,46.7282236 17.5506355,40.914464 17.5506355,33.7428101 C17.5506355,29.063415 20.0270291,24.9625345 23.7411945,22.6770904 C22.9213017,15.5895789 23.2754364,8.58790965 24.6647779,1.88598009 L3.1161026,14.3132772 Z M24.7214395,33.7912557 C24.7214395,37.0827259 27.3907657,39.7509188 30.6845023,39.7509188 C33.9779556,39.7509188 36.6478484,37.0827259 36.6478484,33.7912557 C36.6478484,30.4997856 33.9779556,27.8313093 30.6845023,27.8313093 C27.3907657,27.8313093 24.7214395,30.4997856 24.7214395,33.7912557 Z" id="Fill-8"></path>
            </g>
        </g>
    </g>
</svg>