<?xml version="1.0" encoding="UTF-8"?>
<svg width="81px" height="81px" viewBox="0 0 81 81" version="1.1" xmlns="http://www.w3.org/2000/svg" xmlns:xlink="http://www.w3.org/1999/xlink">
    <!-- Generator: Sketch 49.3 (51167) - http://www.bohemiancoding.com/sketch -->
    <title>upload-file</title>
    <desc>Created with Sketch.</desc>
    <defs></defs>
    <g id="TKS-Web" stroke="none" stroke-width="1" fill="none" fill-rule="evenodd">
        <g id="TISS-1-Home" transform="translate(-802.000000, -629.000000)" fill="#E6EBEF" fill-rule="nonzero">
            <g id="upload-file" transform="translate(802.000000, 629.000000)">
                <g id="Group" transform="translate(44.000000, 44.000000)">
                    <path d="M18.5,37 C8.30145455,37 0,28.7019091 0,18.5 C0,8.29809091 8.30145455,0 18.5,0 C28.6985455,0 37,8.29809091 37,18.5 C37,28.7019091 28.6985455,37 18.5,37 Z M18.5,3.36363636 C10.1548182,3.36363636 3.36363636,10.1548182 3.36363636,18.5 C3.36363636,26.8451818 10.1548182,33.6363636 18.5,33.6363636 C26.8451818,33.6363636 33.6363636,26.8451818 33.6363636,18.5 C33.6363636,10.1548182 26.8451818,3.36363636 18.5,3.36363636 Z" id="Shape"></path>
                    <path d="M18.5,30.2727273 C17.5716364,30.2727273 16.8181818,29.5192727 16.8181818,28.5909091 L16.8181818,8.40909091 C16.8181818,7.48072727 17.5716364,6.72727273 18.5,6.72727273 C19.4283636,6.72727273 20.1818182,7.48072727 20.1818182,8.40909091 L20.1818182,28.5909091 C20.1818182,29.5192727 19.4283636,30.2727273 18.5,30.2727273 Z" id="Shape"></path>
                    <path d="M25.2272727,16.8181818 C24.7967273,16.8181818 24.3661818,16.6533636 24.0365455,16.3270909 L18.5,10.7871818 L12.9634545,16.3237273 C12.3075455,16.9796364 11.2412727,16.9796364 10.5853636,16.3237273 C9.92945455,15.6678182 9.92945455,14.6015455 10.5853636,13.9456364 L17.3126364,7.21836364 C17.9685455,6.56245455 19.0348182,6.56245455 19.6907273,7.21836364 L26.418,13.9456364 C27.0739091,14.6015455 27.0739091,15.6678182 26.418,16.3237273 C26.0883636,16.6533636 25.6578182,16.8181818 25.2272727,16.8181818 Z" id="Shape"></path>
                </g>
                <path d="M38.9722222,74 L1.69444444,74 C0.759111111,74 0,73.2465455 0,72.3181818 L0,21.8636364 C0,21.4162727 0.179611111,20.9890909 0.494777778,20.6729091 L20.8281111,0.491090909 C21.1466667,0.178272727 21.5770556,0 22.0277778,0 L59.3055556,0 C60.2408889,0 61,0.753454545 61,1.68181818 L61,38.6818182 C61,39.6101818 60.2408889,40.3636364 59.3055556,40.3636364 C58.3702222,40.3636364 57.6111111,39.6101818 57.6111111,38.6818182 L57.6111111,3.36363636 L22.7292778,3.36363636 L3.38888889,22.5599091 L3.38888889,70.6363636 L38.9722222,70.6363636 C39.9075556,70.6363636 40.6666667,71.3898182 40.6666667,72.3181818 C40.6666667,73.2465455 39.9075556,74 38.9722222,74 Z" id="Shape"></path>
                <path d="M22.2857143,24 L1.71428571,24 C0.768,24 0,23.232 0,22.2857143 C0,21.3394286 0.768,20.5714286 1.71428571,20.5714286 L20.5714286,20.5714286 L20.5714286,1.71428571 C20.5714286,0.768 21.3394286,0 22.2857143,0 C23.232,0 24,0.768 24,1.71428571 L24,22.2857143 C24,23.232 23.232,24 22.2857143,24 Z" id="Shape"></path>
            </g>
        </g>
    </g>
</svg>